<svg xmlns="http://www.w3.org/2000/svg" width="180" height="180" fill-rule="evenodd" clip-rule="evenodd" image-rendering="optimizeQuality" shape-rendering="geometricPrecision" text-rendering="geometricPrecision">
  <path fill="#200103" d="M3 0h35c-3 3-5 6-6 10V1h-2l-5 2c-2 5-6 8-11 9-1-5 0-8 2-11-5 2-9 1-13-1Z"/>
  <path fill="#110506" d="M38 0h142v129l-3 3v-11l-11-19c-2-6-2-12 0-17v-2l1-3c1-4 1-8-1-11l-3-6-2-4-5-11c-2-2-4-3-6-2l-1-14-1-8-2-5c-3-4-6-5-10-4-10 8-19 17-26 28-1-1-2 0-2 1l1 3c-2 1-2 2 0 4 1 2 3 3 6 3l-1-6-1-1c0-1 1-2 3-1-1 1 0 2 1 3l-1 8-3-1h-1c-3-3-5-4-8-3H88l-6-1-2-3-4-3-1 1c-4 1-6 4-6 9 3-2 6-4 10-4l2 1 1 1c-5 1-10 4-13 8l-3-2c-2 0-2-1-2-2l4-12 1-3 2 3c1-2 3-3 5-3l1-3-3-1-15-29c-3-5-7-6-11-4-1-1-2 0-2 1-6 8-9 18-8 29l-2 12 1 4c-3 1-5 3-4 7l-2 5v-8c0-6 1-11 3-16l-1-2v1l-2-10c-1-7 0-13 1-19 1-4 3-7 6-10Z"/>
  <path fill="#c66f12" d="M48 6c4-2 8-1 11 4l15 29 3 1-1 3h-4c-3-11-7-21-13-30-3-5-6-7-11-7Z"/>
  <path fill="#320303" d="M0 0h3c4 2 8 3 13 1-2 3-3 6-2 11 5-1 9-4 11-9l5-2h2v9c-1 6-2 12-1 19h-1v-4l-1-10c-2-3-5-3-8-1L8 20 7 9C5 8 2 7 0 8V0Z"/>
  <path fill="#af9573" d="m53 10 3 4c-2-2-3-2-2 1-2-2-4-1-5 1l-4 13-1 1c-1-2 0-4 1-5l-2-1c0-6 3-10 7-14h3Z"/>
  <path fill="#4b0703" d="M0 8c2-1 5 0 7 1l1 11 13-6c3-2 6-2 8 1l1 10-2-8-3-2c-7 2-12 5-17 9l-1-2-2-8c-2-2-4-1-5 1V8Z"/>
  <path fill="#da800f" d="m146 19-1 1c-3-4-7-4-10-2-8 7-15 14-19 23l-5 4-1-2c7-11 16-20 26-28 4-1 7 0 10 4Z"/>
  <path fill="#650c03" d="M30 25v4c-2-2-2-4-2-5-1-4-3-5-6-4l-3 6-5 4-4-3-2-3c5-4 10-7 17-9l3 2 2 8Z"/>
  <path fill="#766c5b" d="M54 15c5 5 8 12 10 21l-2 8-2 2v-4l3-6-5-11-1 3-3-3 1 5c-3 0-5-1-5-3-2 0-2 1 0 3l-2 2c-2 3-2 7-2 12l1 19-2 1V54a506 506 0 0 1 0-25l4-13c1-2 3-3 5-1Z"/>
  <path fill="#801403" d="m28 24-7 2-5 6c-2 0-2-1-2-2l5-4 3-6c3-1 5 0 6 4Z"/>
  <path fill="#5d230a" d="m46 7 1 2c2-3 4-3 7 0l-1 1h-3c-4 4-7 8-7 14-2 1-2 3-2 5-2 2-3 4-3 7-1-11 2-21 8-29Z"/>
  <path fill="#851e02" d="m7 22-2-1-2 8-3 1V15c1-2 3-3 5-1l2 8Z"/>
  <path fill="#ba590a" d="m146 19 2 5-2 17-1-12v-9l1-1Z"/>
  <path fill="#59564c" d="M60 42c-2-1-3-2-1-3-2-5-6-7-11-7l2-2c-2-2-2-3 0-3 0 2 2 3 5 3l-1-5 3 3 1-3 5 11-3 6Z"/>
  <path fill="#84340c" d="M48 6c5 0 8 2 11 7 6 9 10 19 13 30h4c-2 0-4 1-5 3l-2-3-1 3c0-13-4-24-12-32l-3-4 1-1c-3-3-5-3-7 0l-1-2c0-1 1-2 2-1Z"/>
  <path fill="#ceae7f" d="m43 24 2 1a506 506 0 0 0 0 29c-1-2-2-2-3-2V28l-1 1c0-2 0-4 2-5Z"/>
  <path fill="#ad2d02" d="m7 22 1 2 2 3c-2 0-3 1-2 3l1 12-3 2-6-2V30l3-1 2-8 2 1Z"/>
  <path fill="#c13703" d="m27 42-4-3-6-6 7-1c0-1 1-3 3-3v13Z"/>
  <path fill="#812d08" d="M145 20v7c-1-7-4-9-9-6-6 3-10 8-12 14-3 2-5 5-6 9-1 1-2 3-1 5-1-1-2-2-1-3-2-1-3 0-3 1h-4l-1-3c0-1 1-2 2-1l1 2 5-4c4-9 11-16 19-23 3-2 7-2 10 2Z"/>
  <path fill="#cab18d" d="M145 27v7l-2-5-1 21-2 8v-4c2-10 2-20 1-29l-3-1-4 5 1 1-5 3 3 1c-4 1-5 3-2 6l-6 3 1 3h-2l2 2c-1 1-2 3-1 5l-3-8 4-9-2-1c2-6 6-11 12-14 5-3 8-1 9 6Z"/>
  <path fill="#736554" d="M140 54c-5 0-6 2-4 6l-2 1v-7l3-3-2-8 2-1c-2-1-2-2 0-3-2-1-3 0-4 1l-7 6-1-3 6-3c-3-3-2-5 2-6l-3-1 5-3-1-1 4-5 3 1c1 9 1 19-1 29Z"/>
  <path fill="#450704" d="m31 29 2 10-2 5V29Z"/>
  <path fill="#721104" d="M30 29h1v15l2-5v-1l1 2c-2 5-3 10-3 16l-1-9V29Z"/>
  <path fill="#d3c7b0" d="m42 49-2-2-1-6a15310 15310 0 0 0 3-13v21Z"/>
  <path fill="#d0b992" d="M56 14c8 8 12 19 12 32-2 0-3 0-3 2-2 2-4 2-5 0 4-3 6-7 4-12-2-9-5-16-10-21-1-3 0-3 2-1Z"/>
  <path fill="#9d1f03" d="M28 24c0 1 0 3 2 5v17l-2-2-1-2V29c-2 0-3 2-3 3l-7 1h-1v-1l5-6 7-2Z"/>
  <path fill="#1b0b10" d="M48 32c5 0 9 2 11 7-2 1-1 2 1 3v1a1878 1878 0 0 0-4 13c0 2 1 3 4 5l2 3c-3 1-4 3-4 5h-1l-5-3c-1-5-2-5-4-1l-1-2-1-19c0-5 0-9 2-12Z"/>
  <path fill="#310504" d="m149 32 1 14c2-1 4 0 6 2l5 11-3-3c-1-4-3-5-6-5-1 4 0 9 2 14h-4l-3-2v-8l2-23Z"/>
  <path fill="#d14502" d="m8 30 6 8c1 5 0 10-3 15l-4 2-7-5v-8l6 2 3-2-1-12Z"/>
  <path fill="#765d44" d="M41 29a15310 15310 0 0 1-1 18l2 2v4l-4-4v4h-1v-1l-1-4 2-12c0-3 1-5 3-7Z"/>
  <path fill="#c55906" d="m80 49-2 2-3-4 1-1 4 3Z"/>
  <path fill="#edd4a7" d="m124 35 2 1-4 9 3 8c-1 1 0 2 1 4l-3 6-3-4-2-15c1-4 3-7 6-9Z"/>
  <path fill="#2d0d10" d="M134 54v4c-2 3-5 4-8 5V48c1-2 2-3 4-3l5 1-1 8Z"/>
  <path fill="#e49327" d="m148 24 1 8-2 23c-1 0-2 1-1 3h-2l1-24v-5l1 12 2-17Z"/>
  <path fill="#51463a" d="M60 43v3l-4 10-1-1 5-12Z"/>
  <path fill="#d16104" d="M109 47h4v4h-4c-2-2-2-3 0-4Z"/>
  <path fill="#392922" d="m134 54 1-8-5-1c-2 0-3 1-4 3l-2-2h2l7-6c1-1 2-2 4-1-2 1-2 2 0 3l-2 1 2 8-3 3Z"/>
  <path fill="#fab906" d="m28 44 2 2v1l-1 11-1-14Z"/>
  <path fill="#b6a07c" d="M64 36c2 5 0 9-4 12 1 2 3 2 5 0-1 3-2 6-1 10 0 1 0 2 2 2v3l-6-2c-3-2-4-3-4-5l4-10 2-2 2-8Z"/>
  <path fill="#8a5925" d="m68 46-4 12c-1-4 0-7 1-10 0-2 1-2 3-2Z"/>
  <path fill="#792205" d="m113 47 1 1 1 6c-3 0-5-1-6-3h4v-4Z"/>
  <path fill="#511304" d="m75 47 3 4 2-2 2 3-1 1-2-1c-4 0-7 2-10 4 0-5 2-8 6-9Z"/>
  <path fill="#7a2c08" d="m117 49 2 10-1 1-5-4 3 1 1-8Z"/>
  <path fill="#f6db90" d="m81 53 1-1 6 1 15 2-3 1h-4l-12-2h-2l-1-1Z"/>
  <path fill="#cd984e" d="M88 53h16l-1 2-15-2Z"/>
  <path fill="#492d18" d="M37 52v1h-1c5 6 5 7-1 4l-2 2c-1-4 1-6 4-7Z"/>
  <path fill="#f1d9af" d="m145 34-1 24c-2 0-3 1-3 3-5 0-6-1-1-3l2-8 1-21 2 5Z"/>
  <path fill="#e05d01" d="m14 38 1 2c2 11-2 17-13 19l1 1-2 11-1 2V50l7 5 4-2c3-5 4-10 3-15Z"/>
  <path fill="#efd3a9" d="m42 53 2 10-3-2c0-4-1-6-3-8v-4l4 4Z"/>
  <path fill="#755c49" d="M126 48v9c-1-2-2-3-1-4-1-2 0-4 1-5Z"/>
  <path fill="#fac762" d="m84 54 12 2c-2-1-3 0-3 1l1 1v1h-5l1-2-6-3Z"/>
  <path fill="#a6835d" d="M140 54v4c-5 2-4 3 1 3 2-1 3 0 2 2h-1c-3-2-6-2-8 0v-2l2-1c-2-4-1-6 4-6Z"/>
  <path fill="#ba854f" d="M37 53h1c2 2 3 4 3 8h-2c-4-3-5-2-2 2h-3c-1-2-2-3-1-4l2-2c6 3 6 2 1-4h1Z"/>
  <path fill="#eb8d25" d="M96 56h4l2 4-6-3-2 1-1-1c0-1 1-2 3-1Z"/>
  <path fill="#ea7809" d="M104 53c3-1 5 0 8 3a1048 1048 0 0 0 3 5l-2 2-10-8 1-2Z"/>
  <path fill="#680d03" d="m158 56 3 3 2 4-4-3-2 13-1 1 1-7c-2-3-3-7-3-10l1-3 3 2Z"/>
  <path fill="#fea101" d="M20 42c3 2 4 6 3 11l-9 12c1-4 2-7 4-9l2-4V42Z"/>
  <path fill="#f17101" d="m10 27 4 3c0 1 0 2 2 2v1h-2l6 9v10l-2 4L6 66 0 78v-5l1-2 2-11-1-1c11-2 15-8 13-19l-1-2-6-8c-1-2 0-3 2-3Z"/>
  <path fill="#fcb004" d="M29 58c-1 2 0 4 1 7l1 5-3-4c-1-3-1-6 1-8Z"/>
  <path fill="#f4dcb0" d="M39 61v3h-1l-1-1c-3-4-2-5 2-2Z"/>
  <path fill="#d07425" d="m118 44 2 15 3 4v1h-1l-4-4 1-1-2-10c-1-2 0-4 1-5Z"/>
  <path fill="#572319" d="M126 57v6c3-1 6-2 8-5v6c-3-1-5 0-6 3h-2l-3-3v-1l3-6Z"/>
  <path fill="#f6d174" d="M144 58h2v6c-1 0-2 1-1 2h-1l-1-3c1-2 0-3-2-2 0-2 1-3 3-3Z"/>
  <path fill="#692808" d="M33 59c-1 1 0 2 1 4v2h-3v-1l2-5Z"/>
  <path fill="#d79236" d="M42 52c1 0 2 0 3 2v13c-1-2-2-3-1-4l-2-10v-1Z"/>
  <path fill="#b84c06" d="m83 62-4 4v-3h-3l-1 3-7 2v-1l8-7 10-2c-2 1-3 2-3 4Z"/>
  <path fill="#fbcf3d" d="M112 56h1l5 4 4 4-1 1-6-4a1048 1048 0 0 1-3-5Z"/>
  <path fill="#b63705" d="m30 47 1 9v9h-1c-1-3-2-5-1-7l1-11Z"/>
  <path fill="#914e1d" d="m142 63-6 4-2-1v-3c2-2 5-2 8 0Z"/>
  <path fill="#facb43" d="M39 61h2l3 2c-1 1 0 2 1 4l3 1v1c-4-1-7-3-9-5v-3Z"/>
  <path fill="#490403" d="m158 56-3-2-1 3c0 3 1 7 3 10l-1 7-9-6v-5l3 2h4c-2-5-3-10-2-14 3 0 5 1 6 5Z"/>
  <path fill="#452114" d="m66 60 3 2v1c-4 2-7 5-10 9-1-1-2-2-1-3 0-2 1-4 4-5l-2-3 6 2v-3Z"/>
  <path fill="#c59f7b" d="m52 66-4 2-3-1v-3l2-1 1 2c2-4 3-4 4 1Z"/>
  <path fill="#f39419" d="M82 54h2l6 3-1 2h6l1 3c-5 1-10 3-14 6l1-6c0-2 1-3 3-4l-10 2-8 7c0-2 1-3 3-4h-2v-1c3-4 8-7 13-8Z"/>
  <path fill="#fba620" d="m115 61 6 4 3 3v3l-11-8 2-2Z"/>
  <path fill="#dfb28c" d="M134 64v2l-4 3-2-2c1-3 3-4 6-3Z"/>
  <path fill="#f8e1bd" d="M142 63h1l1 3-6 3c-2 0-2-1-2-2l6-4Z"/>
  <path fill="#fde710" d="M38 64h1c2 2 5 4 9 5l4 5-1 6c-3-6-8-10-15-12-1-2 0-4 2-4Z"/>
  <path fill="#250d04" d="M105 73c2 7 3 14 2 22l-1-7-4-15-2-4c-1-3-2-6-4-7l-1-3v-1c4 4 7 9 10 15Z"/>
  <path fill="#f8df8e" d="M122 64h1l3 3 11 11 1 3-1 2a728 728 0 0 0-13-15l-3-3 1-1Z"/>
  <path fill="#f45e05" d="M30 65h4l-1 10-1-2-1-3-1-5Z"/>
  <path fill="#841704" d="M147 55v13a819 819 0 0 1 10 5l2-13 4 3 3 6v1l-2-1-2 9-5-2-5 2-6-3V58c-1-2 0-3 1-3Z"/>
  <path fill="#fdbb04" d="M16 33h1l6 6-1 1c2 4 3 9 2 14l-7 10 5 16 5 7c3 7 5 15 5 24l2-1v2h-1c-2 1-3 0-2-2l-2-12a432 432 0 0 0-17-27l-1 1c0-3 1-5 3-7l9-12c1-5 0-9-3-11l-6-9h2Z"/>
  <path fill="#e76d07" d="m83 62-1 6c4-3 9-5 14-6 2 1 3 4 4 7v4l-8-2c-4 2-7 2-10 0l-2 1-1-6 4-4Z"/>
  <path fill="#fdce06" d="m23 39 4 3 1 2c-2 3-3 8-3 13-3 1-5 4-4 8l6 22-5-7-5-16 7-10c1-5 0-10-2-14l1-1Z"/>
  <path fill="#fde108" d="m28 44 1 14c-2 2-2 5-1 8l3 4 1 3v3c-2 2-3 5-2 9l-3 2-6-22c-1-4 1-7 4-8 0-5 1-10 3-13Z"/>
  <path fill="#f1d8af" d="m52 66 5 3-1 5h-4l-4-5v-1l4-2Z"/>
  <path fill="#f0ba42" d="M69 63h2c-2 1-3 2-3 4v1a484 484 0 0 1-14 10l5-6c3-4 6-7 10-9Z"/>
  <path fill="#a8580e" d="m79 66 1 6 3 4c-3 2-4 2-4-2-4-2-8-1-11 1l-6 1-8 7v-1l1-2c4-5 8-9 13-12l7-2 1-3h3v3Z"/>
  <path fill="#da5e0c" d="M106 68c5 2 8 6 9 13v1c-1 2-2 5-1 8l-2-12c-4-3-6-7-6-10Z"/>
  <path fill="#531003" d="M166 69c2 3 2 7 1 11l-1-10v-1Z"/>
  <path fill="#fcb10b" d="M35 63h2l1 1c-2 0-3 2-2 4 7 2 12 6 15 12l1-6h4l-3 1c-1 1 0 2 1 3l1 2-1 2c-2-1-4 0-5 2-3-5-6-8-10-10l-3 2c-1-5-2-9-1-13Z"/>
  <path fill="#b35619" d="M57 69h1c-1 1 0 2 1 3l-5 6c-1-1-2-2-1-3l3-1 1-5Z"/>
  <path fill="#f78611" d="M102 60c7 3 13 9 18 16l-2 3-3 2c-1-7-4-11-9-13l-4-8Z"/>
  <path fill="#fac461" d="m103 55 10 8a1271 1271 0 0 1 17 11l-4 1-2 8c-2-1-3-2-3-4h-3l2-3c-5-7-11-13-18-16l-2-4 3-1Z"/>
  <path fill="#ea9e42" d="M146 64v14h-9l-11-11h2l2 2 4-3 2 1c0 1 0 2 2 2l6-3-2 7-8-2c-1 1 0 3 2 4l9 1V66c-1-1 0-2 1-2Z"/>
  <path fill="#fdedb9" d="M144 66h1v10l-9-1c-2-1-3-3-2-4l8 2 2-7Z"/>
  <path fill="#b65211" d="M138 69h5c-3 2-4 2-5 0Z"/>
  <path fill="#c04f0a" d="m100 69 2 4 1 7h-4c-1 2 0 4 1 7l-2-1c-1-6-4-8-9-6l-1 2-3 2 1-3-3-5-3-4 2-1c3 2 6 2 10 0l8 2v-4Z"/>
  <path fill="#8c5817" d="M68 75c4-1 5 1 1 4l2 3-5 1-2-2-1 3c-4-1-7 0-10 1l1-2 8-7 6-1Z"/>
  <path fill="#7f400b" d="m83 76 3 5-1 3 1 6h-2c0-2-1-2-2-2h-6l7-4c-2-4-5-4-9-1l-3-1-2-3c4-3 3-5-1-4 3-2 7-3 11-1 0 4 1 4 4 2Z"/>
  <path fill="#ed6002" d="m32 76 8 3 7 7-4 1c-4-2-8-3-12-2h-1c-1-4 0-7 2-9Z"/>
  <path fill="#fa8803" d="M34 63h1c-1 4 0 8 1 13l3-2c4 2 7 5 10 10 1-2 3-3 5-2v1l-1 2h-1l-5 1-7-7-8-3v-3l1 2 1-10v-2Z"/>
  <path fill="#cf9043" d="M126 75c2 1 3 3 2 6l2 3h-3c-1 1 0 2 1 4l-4-5 2-8Z"/>
  <path fill="#e2b675" d="m126 75 4-1a728 728 0 0 1 8 7h2v2l1 2 1 7-1-1-5-8-6 1-2-3c1-3 0-5-2-6Z"/>
  <path fill="#2f0f04" d="M140 83v-2c0-2 1-2 3-1l-3 3Z"/>
  <path fill="#ad2903" d="m166 70 1 10-1 3c0-8-1-9-3-2-4 1-7 0-9-2l-6 3-3-1 1-3v-3l6 3 5-2 5 2 2-9 2 1Z"/>
  <path fill="#fcf6e4" d="M118 79h3c0 2 1 3 3 4l1 3-2 1c-2-3-3-3-5 0-1-1-2-2-3-1v-5l3-2Z"/>
  <path fill="#872907" d="M137 78h3l4 1-3 6-1-2 3-3c-2-1-3-1-3 1h-2l-1-3Z"/>
  <path fill="#9e3405" d="m102 73 4 15c-2-1-4 0-5 2l-1-2v-1c-1-3-2-5-1-7h4l-1-7Z"/>
  <path fill="#872c05" d="m105 73 3 5v21l-1-2v-2c1-8 0-15-2-22Z"/>
  <path fill="#b24a09" d="m102 60 4 8c0 3 2 7 6 10l2 12 4 3c0 2 1 2 3 1l2-6 1 3-2 6-2 2-7-7v3c-3-2-4-1-3 2l-1 5c-1-1-2-2-1-3V78l-3-5c-3-6-6-11-10-15v1h-1v-1l2-1 6 3Z"/>
  <path fill="#fb9002" d="M18 56c-2 2-3 5-4 9l-8 6-1 7c4-1 7 0 10 4l10 13a423 423 0 0 1 6 21c-2-4-4-8-4-12-2-4-4-6-7-7L9 87H4c0 2 0 2-2 1v2l-2-2V78l6-12 12-10Z"/>
  <path fill="#55310e" d="m71 82 3 1c4-3 7-3 9 1l-26 4-1-2-6 2 2-3h1c3-1 6-2 10-1l1-3 2 2 5-1Z"/>
  <path fill="#ccb592" d="M88 82v3c1-1 3 0 4 1l1 6h5v-6l2 1v1c-1 4-3 6-6 8l-3-8c-2-1-4-1-4 2h-1l-1-6 3-2Z"/>
  <path fill="#f1e3c8" d="M98 86v6h-5l-1-6c-1-1-3-2-4-1v-3l1-2c5-2 8 0 9 6Z"/>
  <path fill="#f18103" d="M165 85c-1 4-2 9-1 15l-4-7v-5l4-7 1 4Z"/>
  <path fill="#f6dfbb" d="M115 82v4c1-1 2 0 3 1 2-3 3-3 5 0-2 1-3 2-3 5l-2 1-4-3c-1-3 0-6 1-8Z"/>
  <path fill="#ce4205" d="M166 83v2h-1l-1-4-4 7-6-1c0-6-2-7-4-2l-2 4c-2-1-3 0-4 1l-2 8v-6l-1-7 3-6-4-1h6l-1 3 3 1 6-3c2 2 5 3 9 2 2-7 3-6 3 2Z"/>
  <path fill="#0c0202" d="m42 88-5 8-1-3v-5h6Z"/>
  <path fill="#9a3408" d="M31 85c4-1 8 0 12 2l4-1 5-1-2 3c-3 0-5 0-6 2l-2-2h-6v7l-5-10Z"/>
  <path fill="#987e5a" d="m141 91-4-3-5 2-4-2c-1-2-2-3-1-4h3l6-1 5 8Z"/>
  <path fill="#35220e" d="m83 84-7 4c-2 0-3 0-4 2l-4 1c-3-2-5-2-8-2-6 0-12 1-17 3l1-2c1-2 3-2 6-2l6-2 1 2 26-4Z"/>
  <path fill="#eec883" d="m124 83 4 5 4 2 3 3-2 4-3-3v-3c-2-1-4-2-5 0h-1l-1-3-2 6c-2 1-3 1-3-1l2-1c0-3 1-4 3-5l2-1-1-3Z"/>
  <path fill="#fc8102" d="M31 116c-1 3-2 6-1 10h-1l-2 4c-1-3-2-5-1-7v-3l1-1v-5c-6-9-13-15-22-20l-3-4v-2c2 1 2 1 2-1h5l11 10c3 1 5 3 7 7 0 4 2 8 4 12Z"/>
  <path fill="#ecb362" d="M76 88h6c-4 2-8 4-12 4l2-2c1-2 2-2 4-2Z"/>
  <path fill="#fda903" d="M14 65c-2 2-3 4-3 7l1-1 4 3 13 24 2 12-6-15-10-13c-3-4-6-5-10-4l1-7 8-6Z"/>
  <path fill="#c25f16" d="m100 88 1 2c1-2 3-3 5-2l1 7v1l-4-2-2 2-1-3c-1 3-3 5-6 6v-3c3-2 5-4 6-8Z"/>
  <path fill="#fc8f01" d="M160 93c0 5-2 6-7 4l-2-9c-2 0-3 1-3 2v-1l2-4 2-1 3 12h3c0-2 1-3 2-3Z"/>
  <path fill="#f35702" d="M160 88v5c-1 0-2 1-2 3h-3l-3-12-2 1c2-5 4-4 4 2l6 1Z"/>
  <path fill="#bd6a1f" d="M82 88c1 0 2 0 2 2 0 1 0 2 2 3l-9 2-12-1c0-2 1-3 3-3l4-1-2 2c4 0 8-2 12-4Z"/>
  <path fill="#c4873e" d="M125 91c1-2 3-1 5 0v3h-4l-1-3Z"/>
  <path fill="#4b4336" d="m141 91 1 1v6l-1 5-1-9-1-1c-1 3-2 7-1 12l-2-1-2-2c-1-2-2-2-2 0l1-3h4l-2-6-3-3 5-2 4 3Z"/>
  <path fill="#423d30" d="M94 96v3l-3-3-1-7-3 1c0-3 2-3 4-2l3 8Z"/>
  <path fill="#da8729" d="M113 95c1 3 4 6 8 8v1l3 7h-1l-1-1-8-9c-1-3-2-4-4-4-1-3 0-4 3-2Z"/>
  <path fill="#46100a" d="m42 88 2 2-1 2c-4 4-6 9-6 15l-1 5-2 2v-4l2-6V93l1 3 5-8Z"/>
  <path fill="#251915" d="M124 91h1l1 3h4l3 3v2l-1 3-1 2v-2l-1-3-4 3c-3-4-4-4-5 1-4-2-7-5-8-8v-3l7 7 2-2 2-6Z"/>
  <path fill="#0d0a0a" d="M68 91c-2 0-3 1-3 3-1 0-2 0-2 2l5 1 9-2 9-2c-2-1-2-2-2-3h3l3-1 1 7 3 3 4 3v2c-1 3-3 4-6 3h-2l-11-1-4-4-4-2-1 1c-3 0-5 1-4 4h-2l-2-2c-8-1-16 0-23 2l-1 2h-1c0-6 2-11 6-15 5-2 11-3 17-3 3 0 5 0 8 2Z"/>
  <path fill="#742c08" d="m65 94 12 1-9 2-5-1c0-2 1-2 2-2Z"/>
  <path fill="#cc8a3c" d="m135 93 2 6h-4v-2l2-4Z"/>
  <path fill="#59707a" d="M80 98c2-2 4-2 6 0h-6Z"/>
  <path fill="#441e0a" d="M101 96v1l-3 5-4-3c3-1 5-3 6-6l1 3Z"/>
  <path fill="#f6a039" d="M107 96v1c-2-1-4 0-5 1l2 3-2 2v4a4192 4192 0 0 1 6 3l2 4-2 2 2 3h-6v-3c1-1 2-2 1-3-3-2-5-5-5-8l1-8v-1l2-2 4 2Z"/>
  <path fill="#fdc604" d="m160 93 4 7 1 5-4-4c-1 0-2 1-1 3l-4-1-7-8 1 10c-4-4-5-9-2-13v-2c0-1 1-2 3-2l2 9c5 2 7 1 7-4Z"/>
  <path fill="#182127" d="M141 103v3c-2 1-3 1-3-1-1-5 0-9 1-12l1 1 1 9Z"/>
  <path fill="#f06c01" d="m0 88 2 2 3 4c9 5 16 11 22 20v5l-4-7-16-8-7-7v-9Z"/>
  <path fill="#791905" d="M165 85h1c-2 5-2 11 0 17l-2-2c-1-6 0-11 1-15Z"/>
  <path fill="#fbd005" d="M30 85h1l5 10v9c-2 1-2 3-2 6l-2 1c0-9-2-17-5-24l3-2Z"/>
  <path fill="#2f1607" d="M70 101c0 1 0 3 2 5 2 3 5 6 9 8 1 1 0 1-1 2l-4-1c-3-5-7-8-10-10-1-3 1-4 4-4Z"/>
  <path fill="#2a2f3a" d="M77 100c2 2 5 3 9 3 1-1 2 0 1 1l-4 1-8-3c0-2 0-2 2-2Z"/>
  <path fill="#831d0c" d="m77 100 1-1 4 3 3-2 1 3c-4 0-7-1-9-3Z"/>
  <path fill="#4d4646" d="M126 102h5v2c-1 2-3 3-5 3-2-2-3-3-5-3v-1c1-5 2-5 5-1Z"/>
  <path fill="#963920" d="M131 102h-5l4-3 1 3Z"/>
  <path fill="#eb6307" d="M148 89v3c-2 1-3 3-2 6l2 13h-6l-1-5v-3l1-5 2-8c1-1 2-2 4-1Z"/>
  <path fill="#24343b" d="m64 105-8-1c-3-1-6 0-7 2-4-1-8 0-11 1l1-2c7-2 15-3 23-2l2 2Z"/>
  <path fill="#fbe2af" d="m114 101 8 9c-1-1-2 0-2 1-4 0-6-1-8-4 0-3 0-5 2-6Z"/>
  <path fill="#c25f07" d="m36 104-2 6c0-3 0-5 2-6Z"/>
  <path fill="#be7224" d="m75 102 4 4 11 1-10 1 8 6-4 2-4-6-8-4c-2-2-2-4-2-5l1-1 4 2Z"/>
  <path fill="#120102" d="m0 106 10 9 10 4c1-1 3 0 5 1l-3 16v1c-2 1-2 3-2 5-2 5-3 10-3 16l-2-4c1-15-4-26-15-33v-15Z"/>
  <path fill="#a6855a" d="M56 104v1l-2 1-1 7c-1-2-2-2-3 0l-1-6v-1c1-2 4-3 7-2Z"/>
  <path fill="#cf5b08" d="m101 97-1 8c0 3 2 6 5 8 1 1 0 2-1 3l-3-5c-1-1-2-2-3-1v-8l3-5Z"/>
  <path fill="#eec883" d="m134 102-1 4-3 5-4-4c2 0 4-1 5-3l1-2c0-2 1-2 2 0Z"/>
  <path fill="#952d04" d="m0 102 2 4c4-1 7 1 8 6l6 4 4 3-10-4-10-9v-4Z"/>
  <path fill="#ecd3a8" d="M121 104c2 0 3 1 5 3l4 4-3-1-1 3-2-2-3-7Z"/>
  <path fill="#ce761f" d="m134 102 2 2v3c-2 2-3 4-3 7l-2 3c-1-2-2-4-1-6l3-5 1-4Z"/>
  <path fill="#fdab05" d="M148 92c-3 4-2 9 2 13v10l-8-1v-3h6l-2-13c-1-3 0-5 2-6Z"/>
  <path fill="#fbd79f" d="m120 118-2-1c-3-4-7-6-10-7l-3-1-1-3h4v-3c2 5 6 9 11 12l1 3Z"/>
  <path fill="#1a2429" d="M64 105h2c3 2 7 5 10 10l4 1v1h-4l-8-4-4-8Z"/>
  <path fill="#ef993a" d="M90 107h2c0 1 0 3 2 5l-1 2-1-3-4 3-8-6 10-1Z"/>
  <path fill="#753d0e" d="m72 106 8 4 4 6-4 1v-1c1-1 2-1 1-2-4-2-7-5-9-8Z"/>
  <path fill="#b43705" d="m164 100 2 2 11 19-2 10-1-11c-2-6-5-11-9-15l-1-5Z"/>
  <path fill="#dc5401" d="m0 97 7 7 16 8 4 7-1 1v-3l-10-1-6-4c-1-5-4-7-8-6l-2-4v-5Z"/>
  <path fill="#4e524d" d="M49 106v1l-5 1c-3-1-5 0-6 2v12h-2v-10l1-5h1c3-1 7-2 11-1Z"/>
  <path fill="#f9c277" d="m107 97 1 2c-1 1 0 2 1 3l1-5c2 0 3 1 4 4-2 1-2 3-2 6 2 3 4 4 8 4l6 8-4-2-1 1h-1l-1-3c-5-3-9-7-11-12v3h-4l1 3-3-2v-4l2-2-2-3c1-1 3-2 5-1Z"/>
  <path fill="#b7baac" d="M56 105c6-1 9 3 9 10l-9 3c-2-3-3-4-5-2l-2 5-10-3v-4l5-6 5-1-5 4-1 4 5 4 2-6c1-2 2-2 3 0l1-7 2-1Z"/>
  <path fill="#9b3f09" d="M98 104v6c1-1 2 0 3 1l3 5v5l-2 2c-2-3-5-4-8-4-1 0-2 1-2 3l-4 4 1-5 4-7 1-2c-2-2-2-4-2-5 3 1 5 0 6-3Z"/>
  <path fill="#be3905" d="m16 116 10 1v6l-2 9-2 4 3-16c-2-1-4-2-5-1l-4-3Z"/>
  <path fill="#d3cfbb" d="m49 107 1 6-2 6-5-4 1-4 5-4Z"/>
  <path fill="#eac190" d="m93 114-4 7v-4l-13 1v-1h4l4-1 4-2 4-3 1 3Z"/>
  <path fill="#f4a954" d="M108 110c3 1 7 3 10 7-5-1-7 2-6 7-3-2-5-3-8-3v-2h6l-2-3 2-2-2-4Z"/>
  <path fill="#bf7124" d="m118 117 2 1c-1 2 0 3 2 5h-2c-1-3-3-5-6-4v8h4l-4 1c-2-1-3-3-2-4-1-5 1-8 6-7Z"/>
  <path fill="#ded7c3" d="m76 118 13-1v4l-1 5c-7 0-13-1-19-3l-2-7 9 2Z"/>
  <path fill="#f6ecd8" d="m136 104 2 1c0 2 1 2 3 1l1 5v3l-3 16 1 3c-2-2-4-4-6-4l-1-2-1-1-1-2-5-5-6-8c0-1 1-2 2-1l1 1 7 9 1-3 2-3v8c-1-2-1-2-1 0l3 4 1-19v-3Z"/>
  <path fill="#f6c16a" d="M130 111c-1 2 0 4 1 6l-1 3-7-9h1l2 2 1-3 3 1Z"/>
  <path fill="#576c6e" d="m56 118 2 3 6-4 2 4c-3 0-5 1-7 3l-6-6-2 4v-6c2-2 3-1 5 2Z"/>
  <path fill="#5d2103" d="M102 123v3h-1l-1-3-8-1c0-2 1-3 2-3 3 0 6 1 8 4Z"/>
  <path fill="#944806" d="M120 123c-3-1-4 0-5 2l5 1-2 1h-4v-8c3-1 5 1 6 4Z"/>
  <path fill="#cf7b2c" d="m126 119 5 5-4-2-1 1-5-5 1-1 4 2Z"/>
  <path fill="#7b867f" d="m44 108-5 6v4l10 3 2-5v6l-3 2-10-2v-12c1-2 3-3 6-2Z"/>
  <path fill="#fae3b0" d="m136 107-1 19-3-4c0-2 0-2 1 0v-8c0-3 1-5 3-7Z"/>
  <path fill="#334a51" d="M66 121v1c-3 0-5 2-7 4-4-2-7-1-11 1l-9-3-1-2 10 2 3-2 2-4 6 6c2-2 4-3 7-3Z"/>
  <path fill="#3b1904" d="m92 122 8 1 1 3v3h-1c-4-3-8-4-12-2v-1l4-4Z"/>
  <path fill="#fcba05" d="m174 120 1 11-1 5h-1l-3 4-2-1c1-6 1-11-2-15h-3c-3 5-6 10-7 16v12l2-1c-1 2-2 4-1 7-4-1-6-3-7-5 0-8 2-14 6-20l4-14c4-4 7-3 9 2 2 17 4 16 5-1Z"/>
  <path fill="#5c2a05" d="m120 123 2 2-2 1-5-1c1-2 2-3 5-2Z"/>
  <path fill="#d7bb8e" d="M120 118h1l5 5c1 2 3 3 6 3l1 1h-10c1-2 1-4-1-4-2-2-3-3-2-5Z"/>
  <path fill="#864913" d="m131 124 1 2c-3 0-5-1-6-3l1-1 4 2Z"/>
  <path fill="#e5e7e1" d="M104 121c3 0 5 1 8 3-1 1 0 3 2 4l2 1v2l-1 1h-3v3l-3 1-4-5c-1-4-2-7-1-10Z"/>
  <path fill="#9f7744" d="M120 123h2c2 0 2 2 1 4l-1 1-6 1-2-1 4-1 2-1 2-1-2-2Z"/>
  <path fill="#8b8a78" d="m122 128 1-1h10l1 2h-2c-4-1-7-2-10-1Z"/>
  <path fill="#7a8c8a" d="M56 105v-1l8 1 4 8 8 4v1l-9-2 2 7c6 2 12 3 19 3v1l-3 4-13-4-4-3c0-2-1-2-2-2v-1l-2-4-6 4-2-3 9-3c0-7-3-11-9-10Z"/>
  <path fill="#314d58" d="m68 124 4 3 13 4c-6 1-11 0-15-3l-2-4Z"/>
  <path fill="#300303" d="M0 121c11 7 16 18 15 33-3-5-4-9-5-14l-1-1c-2 0-4 1-5 3l-1-8-3-3v-10Z"/>
  <path fill="#1b2f3b" d="M122 128c3-1 6 0 10 1l4 2-9 2 3 2h-5l-1-4h-8v-2l6-1Z"/>
  <path fill="#18222c" d="M66 122c1 0 2 0 2 2l2 4c4 3 9 4 15 3l3-4-3 8-10 1-9-4-7-1-9 6c-1-1 0-2 1-3l-5 1c-6-2-8-6-7-11l9 3c4-2 7-3 11-1 2-2 4-4 7-4Z"/>
  <path fill="#406073" d="M132 129h2c2 0 4 2 6 4v1l-10 1-3-2 9-2-4-2Z"/>
  <path fill="#f66704" d="M26 123c-1 2 0 4 1 7l2-4v8h-4l-3 15v-13l2-4 2-9Z"/>
  <path fill="#1a0102" d="m0 131 3 3 1 8-4 7v-18Z"/>
  <path fill="#3b261f" d="M36 112v10c0 8 1 16 4 25l-2 1-2-1 1-3-5-17v-7l2-6 2-2Z"/>
  <path fill="#5b7883" d="M101 126h1c-1 4 0 8 2 12l-4-1 1-8v-3Z"/>
  <path fill="#230203" d="M177 121v11l3-3v21l-6 3c-2-6-2-12 0-17l1-5 2-10Z"/>
  <path fill="#fcdc15" d="M165 105c4 4 7 9 9 15-1 17-3 18-5 1-2-5-5-6-9-2l-4 14c-4 6-6 12-6 20-1-2-2-2-2 0h-1c-1-3-2-4-4-5l-2-12-1-2v-1l-1-3 3-16 8 1v-10l-1-10 7 8 4 1c-1-2 0-3 1-3l4 4Z"/>
  <path fill="#fdef15" d="M152 102c6 5 7 11 2 18 1 7-1 15-5 22-1 2-3 3-5 2-1-9-2-17-1-25l9-2v-15Z"/>
  <path fill="#9daeb0" d="M104 121c-1 3 0 6 1 10l4 5 3-1v4c-3 1-6 1-8-1-2-4-3-8-2-12v-3l2-2Z"/>
  <path fill="#431a10" d="m32 127 5 17-1 3-4-1v-19Z"/>
  <path fill="#64120e" d="m76 141-1 4c3-2 3-1 1 1h-2l-1-1-1-6c1 0 3 0 4 2Z"/>
  <path fill="#fc9b03" d="M170 140v1c-2 0-2 0-2 2-2-1-3 0-3 2l-1 1-2 2-4 3-2 1v-12c1-6 4-11 7-16h3c3 4 3 9 2 15l2 1Z"/>
  <path fill="#05060b" d="M100 129c-1 2-2 4-1 7-4-1-4 0-1 2-2 2-2 3 0 5l-1 1 4 1-2 1 3 3 4 1 9-3v-15l1-1h8l1 4h5l10-1 1 2-1 8c-5-1-5 0-1 2l-3 3 1 2c-2 3-3 6-2 10h4v2l-6 2-1-2c-1-1-2 0-2 1h-22c-3-1-6-2-8-1l-6-3 2 3-8-1c-1-3-2-5-4-6v-3l-3-3-2 2c-2-2-2-3 1-4l-1-1-3 1v-2c2-2 2-3-1-1l1-4 2-1-3-4 10-1 3-8c4-2 8-1 12 2Z"/>
  <path fill="#24556d" d="M115 132v1c-2 3-3 6-3 11l-5 1v2l-4-2 1-3h7l1-3v-7h3Z"/>
  <path fill="#350303" d="M173 136h1c-2 5-2 11 0 17l6-3v5c-2 0-3 1-3 3l-5 1c-2-8-1-16 1-23Z"/>
  <path fill="#092536" d="M100 129h1l-1 8 4 1-4 2 4 2-1 3 4 2v-2l5-1c0-5 1-8 3-11v14l-9 3-4-1-3-3 2-1-4-1 1-1c-2-2-2-3 0-5-3-2-3-3 1-2-1-3 0-5 1-7Z"/>
  <path fill="#4e7a8b" d="M104 138c2 2 5 2 8 1l-1 3h-7l-4-2 4-2Z"/>
  <path fill="#1a171b" d="M36 122h2l1 2c-1 5 1 9 7 11l5-1c-1 1-2 2-1 3l9-6a1050 1050 0 0 1-6 5c-3 3-3 5 3 6 1 4 2 8 5 12l-1 1 2 6c-3-4-7-7-11-9-4 0-4 2-1 5l-1 1-4-2-9 1v-8l2-1 2-1c-3-9-4-17-4-25Z"/>
  <path fill="#28445a" d="m140 144-1 5-2 2-1-2 3-3c-4-2-4-3 1-2Z"/>
  <path fill="#290b03" d="m32 146 4 1 2 1-2 1v8l9-1 4 2v1c-7-1-13-2-19-1-2-3-2-6-1-9 0-2 1-3 3-3Z"/>
  <path fill="#88110d" d="m72 146-1 4c-1 0-2 1-1 3l-4-14v-1c-1-2 0-4 1-5l1 10 4 3Z"/>
  <path fill="#490a0a" d="M84 153h-5l3 6-4 1 2-2c-3-3-5-6-4-10l3-1 1 1c-3 1-3 2-1 4l2-2 3 3Z"/>
  <path fill="#ed5202" d="M162 148c1 10 0 21-3 32h-5c4-5 5-11 4-17l-1-5c-1-3 0-5 1-7l4-3Z"/>
  <path fill="#5a0803" d="m15 154 2 4v2c-3-1-4-3-4-5l-5 7c0-13-2-13-7-1-1-4 0-8 2-11l-1-1-2 2v-2l4-7c1-2 3-3 5-3l1 1c1 5 2 9 5 14Z"/>
  <path fill="#d74c03" d="M29 126h1v12h-3l-4 16-3 2v-14c0-2 0-4 2-5v12l3-15h4v-8Z"/>
  <path fill="#e8e3d5" d="m141 136 2 12-1 8-2 4c-1-4-2-8-1-11l1-5 1-8Z"/>
  <path fill="#211618" d="m59 131 7 1 9 4 3 4-2 1c-1-2-3-2-4-2l1 6-1 1-4-3-1-10c-1 1-2 3-1 5l-3-4-1 2v11l2 13 4 3v5c4 1 9 3 13 6l3-2 1 6c1-1 2 0 3 2h-8c-2-2-3-2-4-1v-3l-4-1c-2-3-4-4-7-5l-3-9-2-6 1-1c-3-4-4-8-5-12-6-1-6-3-3-6l2 2 4-7Z"/>
  <path fill="#59150c" d="m66 139 4 14v8l2 1v1l-6-3c-2-8-2-15 0-21Z"/>
  <path fill="#fae628" d="m73 145 1 1v16h-2l-1-12 1-4 1-1Z"/>
  <path fill="#ed8425" d="M143 148c2 1 3 2 4 5-1 1-2 3-1 6l-2 2c0-3-1-4-2-5l1-8Z"/>
  <path fill="#490504" d="M173 136c-2 7-3 15-1 23l5-1c0-2 1-3 3-3v15h-4c-2-3-3-6-2-8l-4-1v-21l3-4Z"/>
  <path fill="#8c1803" d="m17 160 2 3v4l-1 3c0-6-1-7-4-2-2-2-5-3-7-2-3-7-5-7-4 2H0v-17l2-2 1 1c-2 3-3 7-2 11 5-12 7-12 7 1l5-7c0 2 1 4 4 5Z"/>
  <path fill="#d2480e" d="M74 146h2v2c-1 4 1 7 4 10l-2 2c-2 0-3 0-4 2v-16Z"/>
  <path fill="#9d3818" d="M84 153v3c-1 1 0 3 1 4-5 0-9 1-13 3v-1h2c1-2 2-2 4-2l4-1-3-6h5Z"/>
  <path fill="#acbfc0" d="M139 149c-1 3 0 7 1 11l-1 3v-2c-2-3-3-7-2-10l2-2Z"/>
  <path fill="#7d1104" d="M168 143c0 7 0 14 2 22l1 1 1 10h4l4-4v8h-12l-3-35c0-2 1-3 3-2Z"/>
  <path fill="#450609" d="m96 154 7 4c-4 1-6-1-7-4Z"/>
  <path fill="#3e0804" d="M20 142v17l-1 4-2-3v-2c0-6 1-11 3-16Z"/>
  <path fill="#902b04" d="M33 112h1v2l-2 6-2 19c-4 5-5 12-4 19l-2 3-4-2v-3l3-2 4-16h3v-12c-1-4 0-7 1-10l2-4Z"/>
  <path fill="#cd5e0e" d="m71 150 1 12-2-1v-8c-1-2 0-3 1-3Z"/>
  <path fill="#fde808" d="M150 153c1 2 3 4 7 5l1 5-3 12c1-8-2-13-8-16l1-6c0-2 1-2 2 0Z"/>
  <path fill="#561d04" d="M32 120v26c-2 0-3 1-3 3-1 3-1 6 1 9 6-1 12 0 19 1l1 3c-3-1-5-2-7-1l-8 1c-3-1-5-2-7-1 0-2-1-3-2-3-1-7 0-14 4-19l2-19Z"/>
  <path fill="#346275" d="M137 151c-1 3 0 7 2 10h-4c-1-4 0-7 2-10Z"/>
  <path fill="#670808" d="M100 163h-4l-2-3 6 3Z"/>
  <path fill="#111b22" d="m62 161 3 9c3 1 5 2 7 5l4 1v3c1-1 2-1 4 1H60c0-8-2-14-6-20l-5-1v-1l1-1c-3-3-3-5 1-5 4 2 8 5 11 9Z"/>
  <path fill="#3c3d32" d="m49 159 5 1c4 6 6 12 6 20h-2c0-5-1-9-3-12l-3-1-2-5-1-3Z"/>
  <path fill="#922209" d="M84 162h4l8 1c-2 1-1 2 1 4l4-2c0 4-2 5-4 3l-2 2-3-6c-2-1-3-1-4 1l-6 1 2-4Z"/>
  <path fill="#3a130e" d="M66 138v1c-2 6-2 13 0 21l6 3c4-2 8-3 13-3-1-1-2-3-1-4 2 1 3 3 4 6h-4c-2-1-3 0-4 1-1 2-1 4 1 6l-3 1v-3c-4-1-8-2-10-4l-4-3-2-13v-11l1-2 3 4Z"/>
  <path fill="#b52503" d="M18 170v1c-2 1-3 2-3 4l-8-8v-1c2-1 5 0 7 2 3-5 4-4 4 2Z"/>
  <path fill="#7c2803" d="M26 158c1 0 2 1 2 3 2-1 4 0 7 1l-1 2 5 3c-4 1-7 2-9 5l-5-4c1-3 0-4-2-5l1-2 2-3Z"/>
  <path fill="#c2310c" d="M96 163h4c2-1 5 0 8 1l-6 1h-1l-4 2c-2-2-3-3-1-4Z"/>
  <path fill="#f9d159" d="M132 163c-1 5 0 11 1 17h-11v-1l7-1 1-13v-1c0-1 1-2 2-1Z"/>
  <path fill="#e7530b" d="M142 156c1 1 2 2 2 5l-6 11-5 4v-11l6-2 1-3 2-4Z"/>
  <path fill="#d23603" d="M164 146v27l2 7h-7c3-11 4-22 3-32l2-2Z"/>
  <path fill="#530202" d="m20 159 4 2-1 2c2 1 3 2 2 5l-1 2 6 10h-3a1113 1113 0 0 1-8-13v-4l1-4Z"/>
  <path fill="#984704" d="m43 161 4 3 1 4c-4-1-4 1-2 4-2 1-2 3-2 5l-5-2c3 0 3-1 1-2h-7l-3-1c2-3 5-4 9-5l-5-3 1-2 8-1Z"/>
  <path fill="#fdce06" d="M147 153h1l-1 6c6 3 9 8 8 16l3-12c1 6 0 12-4 17h-2v-11l-6-6v-4c-1-3 0-5 1-6Z"/>
  <path fill="#341b17" d="M68 163c2 2 6 3 10 4v3l3-1h5l5 11h-3c-1-2-2-3-3-2l-1-6-3 2c-4-3-9-5-13-6v-5Z"/>
  <path fill="#5c0803" d="M170 141v20l4 1c-1 2 0 5 2 8h4v2l-4 4h-4l-1-10-1-1c-2-8-2-15-2-22 0-2 0-2 2-2Z"/>
  <path fill="#310302" d="m19 167 3 5-2-1v9h-2v-10l1-3Z"/>
  <path fill="#512115" d="m84 162-2 4 6-1c1 0 2 0 3 2l1 7 8 2 2-6v10H91l-5-11h-5c-2-2-2-4-1-6 1-1 2-2 4-1Z"/>
  <path fill="#b12403" d="m165 145 3 35h-2l-2-7v-27l1-1Z"/>
  <path fill="#d34202" d="M7 166v1c-2-2-3-2-2 1l1 7H2c0-2-1-3-2-3v-4h3c-1-9 1-9 4-2Z"/>
  <path fill="#fea802" d="M146 159v4l6 6v11h-3c0-7-4-9-10-6l-1-2 6-11 2-2Z"/>
  <path fill="#210102" d="m25 168 5 4 3 8h-3l-6-10 1-2Z"/>
  <path fill="#976321" d="M43 161c2-1 4 0 7 1l2 5 3 6c1 1 0 3-1 5l2 2H42l4-2-2-1c0-2 0-4 2-5-2-3-2-5 2-4l-1-4-4-3Z"/>
  <path fill="#792d14" d="M88 165c1-2 2-2 4-1l3 6 2-2c2 2 4 1 4-3h1v5l-2 6-8-2-1-7c-1-2-2-2-3-2Z"/>
  <path fill="#fc9405" d="m132 163 1 2v11l5-4 1 2c6-3 10-1 10 6h-16c-1-6-2-12-1-17Z"/>
  <path fill="#782c05" d="M33 173h7c2 1 2 2-1 2l5 2 2 1-4 2h-6c0-1 1-2 3-2l-5-2-1-3Z"/>
  <path fill="#fde796" d="M128 166c0-1 1-2 2-1l-1 13-7 1 6-9v-4Z"/>
  <path fill="#f79801" d="M0 172c1 0 2 1 2 3l4 5H0v-8Z"/>
  <path fill="#170001" d="m22 172 5 8h-7v-9l2 1Z"/>
  <path fill="#561403" d="M18 171v9h-4c-1-2 0-4 1-5 0-2 1-3 3-4Z"/>
  <path fill="#f9f0d7" d="M128 166v4l-6 9v1h-17l5-14h18Z"/>
  <path fill="#f15c02" d="m7 167 8 8c-1 1-2 3-1 5H6l-4-5h4l-1-7c-1-3 0-3 2-1Z"/>
  <path fill="#6a5a39" d="m52 167 3 1c2 3 3 7 3 12h-2l-2-2c1-2 2-4 1-5l-3-6Z"/>
  <path fill="#3d0902" d="m30 172 3 1 1 3 5 2c-2 0-3 1-3 2h-3l-3-8Z"/>
  <path fill="#483e3a" d="M108 164h22v1c-1-1-2 0-2 1h-18l-5 14h-3v-15l6-1Z"/>
</svg>
